<?xml version="1.0" standalone="no"?>
<!DOCTYPE svg PUBLIC "-//W3C//DTD SVG 20010904//EN"
 "http://www.w3.org/TR/2001/REC-SVG-20010904/DTD/svg10.dtd">
<svg version="1.0" xmlns="http://www.w3.org/2000/svg"
 width="280.000000pt" height="160.000000pt" viewBox="0 0 280.000000 160.000000"
 preserveAspectRatio="xMidYMid meet">

<g transform="translate(0.000000,160.000000) scale(0.100000,-0.100000)"
fill="#f83227" stroke="none">
<path d="M482 1177 l-172 -172 138 -138 c75 -75 142 -137 147 -137 6 0 82 72
170 160 128 128 165 160 187 160 26 0 48 -23 48 -51 0 -7 -75 -88 -167 -181
l-168 -168 68 -68 67 -67 268 268 c264 264 290 285 320 255 30 -30 10 -56
-248 -313 -235 -235 -285 -295 -247 -295 6 0 133 121 282 270 252 252 269 271
269 305 0 33 -13 49 -154 190 -145 146 -157 155 -193 155 -34 0 -47 -9 -120
-79 l-82 -79 -81 79 c-74 71 -85 79 -120 79 -37 0 -48 -8 -212 -173z"/>
<path d="M1450 709 l0 -142 40 6 c22 3 43 1 46 -4 12 -20 70 -9 95 17 32 34
34 113 3 144 -21 22 -65 29 -101 16 -22 -7 -23 -5 -23 48 0 56 0 56 -30 56
l-30 0 0 -141z m138 -42 c4 -34 -14 -59 -41 -55 -28 4 -41 30 -33 62 6 24 11
27 39 24 27 -2 33 -8 35 -31z"/>
<path d="M2170 710 l0 -140 30 0 c28 0 30 3 30 35 0 19 2 35 5 35 3 0 19 -16
36 -35 26 -29 38 -35 72 -35 l41 0 -44 45 -44 45 44 45 44 45 -40 0 c-32 0
-46 -6 -69 -30 -16 -16 -32 -30 -37 -30 -4 0 -8 36 -8 80 l0 80 -30 0 -30 0 0
-140z"/>
<path d="M1758 753 c-15 -3 -39 -18 -54 -36 -21 -26 -25 -38 -21 -70 8 -61 36
-82 108 -82 54 0 63 3 85 28 26 30 31 71 13 110 -17 38 -72 58 -131 50z m60
-55 c20 -20 15 -76 -7 -88 -25 -13 -27 -13 -45 6 -31 30 -15 94 24 94 9 0 21
-5 28 -12z"/>
<path d="M1998 753 c-15 -3 -39 -18 -54 -36 -21 -26 -25 -38 -21 -70 8 -61 36
-82 108 -82 54 0 63 3 85 28 26 30 31 71 13 110 -17 38 -72 58 -131 50z m60
-55 c20 -20 15 -76 -7 -88 -25 -13 -27 -13 -45 6 -31 30 -15 94 24 94 9 0 21
-5 28 -12z"/>
<path d="M1450 370 l0 -140 30 0 30 0 0 140 0 140 -30 0 -30 0 0 -140z"/>
<path d="M1575 395 c-19 -18 -25 -35 -25 -70 0 -64 31 -95 95 -95 51 0 99 20
109 45 3 9 6 34 6 56 0 59 -36 89 -107 89 -44 0 -58 -5 -78 -25z m109 -31 c21
-20 20 -53 -1 -76 -20 -22 -37 -23 -57 -2 -30 30 -10 94 29 94 7 0 21 -7 29
-16z"/>
<path d="M1804 328 c36 -78 47 -93 68 -96 22 -3 28 5 61 85 21 49 37 92 37 96
0 4 -14 7 -30 7 -24 0 -33 -6 -40 -27 -26 -71 -26 -72 -49 -20 -19 43 -23 47
-55 47 l-35 0 43 -92z"/>
<path d="M2008 400 c-32 -25 -42 -71 -24 -115 17 -40 42 -55 94 -55 38 0 92
30 92 51 0 15 -50 10 -66 -6 -21 -20 -30 -19 -56 8 l-23 22 73 3 72 3 0 30 c0
18 -9 39 -25 54 -31 32 -100 35 -137 5z m90 -22 c23 -23 13 -38 -23 -38 -22 0
-35 5 -35 13 0 16 20 37 35 37 6 0 16 -5 23 -12z"/>
<path d="M2210 325 l0 -95 30 0 c28 0 29 1 32 58 3 53 5 58 35 72 40 19 47 60
10 60 -13 0 -28 -5 -35 -12 -9 -9 -12 -9 -12 0 0 7 -13 12 -30 12 l-30 0 0
-95z"/>
<path d="M2378 409 c-21 -12 -25 -71 -5 -87 6 -6 24 -13 40 -17 15 -4 27 -11
27 -16 0 -16 -25 -20 -52 -10 -22 8 -27 7 -32 -12 -7 -28 9 -37 65 -37 53 0
79 21 79 63 0 28 -32 57 -62 57 -10 0 -18 7 -18 16 0 12 7 15 31 12 21 -3 33
0 39 13 7 12 5 19 -6 23 -24 9 -87 6 -106 -5z"/>
</g>
</svg>
